<?xml version="1.0" encoding="UTF-8" standalone="no"?>
<svg
   xmlns:dc="http://purl.org/dc/elements/1.1/"
   xmlns:cc="http://creativecommons.org/ns#"
   xmlns:rdf="http://www.w3.org/1999/02/22-rdf-syntax-ns#"
   xmlns:svg="http://www.w3.org/2000/svg"
   xmlns="http://www.w3.org/2000/svg"
   xmlns:sodipodi="http://sodipodi.sourceforge.net/DTD/sodipodi-0.dtd"
   xmlns:inkscape="http://www.inkscape.org/namespaces/inkscape"
   width="24px"
   height="24px"
   version="1.1"
   id="Layer_1"
   x="0px"
   y="0px"
   viewBox="0 0 74.4 74.4"
   style="enable-background:new 0 0 74.4 74.4;"
   xml:space="preserve"
   preserveAspectRatio="xMinYMid meet"
   sodipodi:docname="monologo.svg"
   inkscape:version="1.0.2 (e86c870879, 2021-01-15)"
   inkscape:export-filename="/home/davo/public_html/moodlenew/mod/checklist/pix/monologo.png"
   inkscape:export-xdpi="96"
   inkscape:export-ydpi="96"><metadata
   id="metadata13"><rdf:RDF><cc:Work
       rdf:about=""><dc:format>image/svg+xml</dc:format><dc:type
         rdf:resource="http://purl.org/dc/dcmitype/StillImage" /></cc:Work></rdf:RDF></metadata><defs
   id="defs11" /><sodipodi:namedview
   pagecolor="#ffffff"
   bordercolor="#666666"
   borderopacity="1"
   objecttolerance="10"
   gridtolerance="10"
   guidetolerance="10"
   inkscape:pageopacity="0"
   inkscape:pageshadow="2"
   inkscape:window-width="1280"
   inkscape:window-height="995"
   id="namedview9"
   showgrid="false"
   showguides="true"
   inkscape:guide-bbox="true"
   inkscape:zoom="11.313709"
   inkscape:cx="3.3363867"
   inkscape:cy="4.1395152"
   inkscape:window-x="2560"
   inkscape:window-y="0"
   inkscape:window-maximized="1"
   inkscape:current-layer="Layer_1"
   inkscape:document-rotation="0"><sodipodi:guide
     position="21.796875,54.734375"
     orientation="1,0"
     id="guide834" /><sodipodi:guide
     position="55.703125,30.321875"
     orientation="1,0"
     id="guide836" /></sodipodi:namedview>
<g
   id="g6"
   transform="matrix(0.61437607,0,0,0.61437607,15.938639,-3.2574833)">
	<path
   d="m 62.1,32.3 c -1.7,0 -2.6,1.4 -2.6,3.1 v 22.8 h -45 V 13.3 h 27.8 c 4.1,0.1 4.1,-5.2 0,-5.1 H 12.6 c -1.7,0 -3.1,1.4 -3.1,3.1 v 0 49.1 c 0,1.7 1.3,3.1 3,3.1 v 0 h 49 c 1.7,0 3.1,-1.4 3.1,-3.1 V 35.5 c 0.1,-1.8 -0.8,-3.2 -2.5,-3.2 z"
   id="path2" />
	<path
   d="m 28.4,30.9 c -1.4,-1 -3.3,-0.7 -4.4,0.6 -1,1.4 -0.7,3.4 0.6,4.5 l 9.5,7 c 1.1,0.8 2.2,1.1 3.4,0 4.4,-4.7 22.1,-24.8 26.4,-29.4 0.9,-1 1.1,-2.4 0.6,-3.6 -0.5,-1.2 -1.7,-1.9 -3,-1.9 -0.8,0 -1.6,0.4 -2.1,1 C 55,13.8 39.7,31.5 35.6,36 Z"
   id="path4" />
</g>
<g
   id="g848"
   transform="matrix(0.61634123,0,0,0.61634123,11.967377,33.013025)">
	<path
   d="m 65.98529,58.1 h -45 V 13.2 l 45,1e-6 z M 67.970812,8.0999997 H 19.08529 c -1.7,0 -3.1,1.4 -3.1,3.1000003 v 0 49.1 c 0,1.7 1.3,3.1 3,3.1 v 0 h 49 c 1.7,0 3.099715,-1.4 3.1,-3.1 l 0.0082,-49.099999 c 0,-1.43976 -1.178469,-3.06019 -3.12272,-3.1000013 z"
   id="path844"
   sodipodi:nodetypes="ccccccsscsscsscc"
   style="fill:#000000;fill-opacity:1;stroke:none;stroke-opacity:1" />
	
</g></svg>
